<?xml version="1.0" encoding="utf-8"?>
<!-- Generator: Adobe Illustrator 19.2.0, SVG Export Plug-In . SVG Version: 6.00 Build 0)  -->
<svg version="1.1" id="Layer_1" xmlns="http://www.w3.org/2000/svg" xmlns:xlink="http://www.w3.org/1999/xlink" x="0px" y="0px"
	 viewBox="0 0 446.3 756.3" style="enable-background:new 0 0 446.3 756.3;" xml:space="preserve">
<path d="M434.9,57.7L82.8,378.1l352.1,320.5c14,12.7,15.3,33.9,2.8,47.3c-12.5,13.4-33.8,13.9-47.8,1.2L16.5,407.3
	c-2.9-1.6-5.6-3.7-8-6.2c-6-6.4-8.8-14.7-8.5-22.9c-0.2-8.2,2.6-16.5,8.6-22.9c2.4-2.5,5.1-4.6,8-6.2L389.9,9.2
	c14-12.7,35.4-12.2,47.9,1.2C450.2,23.8,448.9,45,434.9,57.7L434.9,57.7z"/>
</svg>
