<?xml version="1.0" encoding="utf-8"?>
<!-- Generator: Adobe Illustrator 19.2.0, SVG Export Plug-In . SVG Version: 6.00 Build 0)  -->
<svg version="1.1" id="Layer_1" xmlns="http://www.w3.org/2000/svg" xmlns:xlink="http://www.w3.org/1999/xlink" x="0px" y="0px"
	 viewBox="0 0 412 412" style="enable-background:new 0 0 412 412;" xml:space="preserve">
<style type="text/css">
	.st0{fill:#0066CC;}
</style>
<path id="x-mark-4-icon" class="st0" d="M412,206c0,113.8-92.2,206-206,206S0,319.8,0,206S92.2,0,206,0S412,92.2,412,206z M372,206
	c0-91.8-74.3-166-166-166c-91.8,0-166,74.3-166,166c0,91.8,74.3,166,166,166C297.8,372,372,297.7,372,206z M275.3,312.5L208,245.2
	l-67.3,67.3l-36.2-36.2l67.3-67.3l-67.3-67.3l36.2-36.2l67.3,67.3l67.3-67.3l36.2,36.2L244.2,209l67.3,67.3L275.3,312.5z"/>
</svg>
